<?xml version="1.0" encoding="UTF-8" standalone="no"?>
<svg
   xmlns:dc="http://purl.org/dc/elements/1.1/"
   xmlns:cc="http://creativecommons.org/ns#"
   xmlns:rdf="http://www.w3.org/1999/02/22-rdf-syntax-ns#"
   xmlns:svg="http://www.w3.org/2000/svg"
   xmlns="http://www.w3.org/2000/svg"
   xmlns:sodipodi="http://sodipodi.sourceforge.net/DTD/sodipodi-0.dtd"
   xmlns:inkscape="http://www.inkscape.org/namespaces/inkscape"
   viewBox="0 0 64 64"
   id="svg2999"
   version="1.1"
   inkscape:version="0.48.4 r9939"
   width="100%"
   height="100%"
   sodipodi:docname="sword-wound.svg">
  <metadata
     id="metadata3011">
    <rdf:RDF>
      <cc:Work
         rdf:about="">
        <dc:format>image/svg+xml</dc:format>
        <dc:type
           rdf:resource="http://purl.org/dc/dcmitype/StillImage" />
      </cc:Work>
    </rdf:RDF>
  </metadata>
  <defs
     id="defs3009" />
  <sodipodi:namedview
     pagecolor="#ffffff"
     bordercolor="#666666"
     borderopacity="1"
     objecttolerance="10"
     gridtolerance="10"
     guidetolerance="10"
     inkscape:pageopacity="0"
     inkscape:pageshadow="2"
     inkscape:window-width="1920"
     inkscape:window-height="1027"
     id="namedview3007"
     showgrid="false"
     fit-margin-top="0"
     fit-margin-left="0"
     fit-margin-right="0"
     fit-margin-bottom="0"
     inkscape:zoom="0.4609375"
     inkscape:cx="256"
     inkscape:cy="256"
     inkscape:window-x="-8"
     inkscape:window-y="-8"
     inkscape:window-maximized="1"
     inkscape:current-layer="svg2999" />
  <path
     d="M 0,0 H 64 V 64 H 0 z"
     fill="transparent"
     id="path3001"
     inkscape:connector-curvature="0"
     style="fill-opacity:0" />
  <g
     class=""
     transform="scale(0.125,0.125)"
     id="g3003">
    <path
       d="m 146.326,6.15 87.813,128.725 -60.87,-39.916 34.925,62.864 L 38.56,48.06 h -0.003 c 40.207,71.33 82.046,134.913 129.23,191.764 L 303.94,103.67 C 258.776,66.618 207.266,34.346 146.326,6.15 z m 347.145,9.496 -120.488,46.067 -214.59,214.09 13.213,13.215 L 383.367,77.75 461.445,47.9 432.043,126.46 220.297,337.71 233.51,350.924 448.12,136.818 493.47,15.646 z M 407.177,89.13 147.227,349.08 c -11.956,-17.32 -11.687,-40.444 0.25,-57.764 l -31.26,-31.255 c -28.637,34.832 -28.588,85.102 0.167,119.864 L 52.336,443.97 c -2.528,-0.95 -5.184,-1.43 -7.842,-1.43 -5.74,0 -11.476,2.216 -15.908,6.647 -8.864,8.865 -8.866,22.953 0,31.82 8.864,8.863 22.954,8.863 31.818,0 6.512,-6.513 8.234,-15.844 5.178,-23.853 l 64.057,-64.056 c 34.788,28.437 85.12,28.65 119.817,0.203 l -31.262,-31.26 c -17.28,11.84 -40.352,11.907 -57.68,0.18 L 420.39,102.347 407.176,89.132 z m -2.196,117.01 -136.795,136.797 c 55.29,48.057 118.235,90.138 192.464,127.216 l -61.867,-118.743 102.78,68.85 -117.75,-164.645 86.816,42.908 c -20.895,-33.04 -42.523,-63.772 -65.65,-92.382 z"
       id="path3005"
       inkscape:connector-curvature="0"
       style="fill:#eeeeee;fill-opacity:1" />
  </g>
</svg>
