{
    "asset" : {
        "generator" : "Khronos glTF Blender I/O v0.9.9",
        "version" : "2.0"
    },
    "scene" : 0,
    "scenes" : [
        {
            "nodes" : [
                0
            ],
            "name" : "Scene"
        }
    ],
    "nodes" : [
        {
            "mesh" : 0,
            "name" : "small_flask"
        }
    ],
    "meshes" : [
        {
            "primitives" : [
                {
                    "attributes" : {
                        "POSITION" : 0,
                        "NORMAL" : 1,
                        "TEXCOORD_0" : 2
                    },
                    "indices" : 3
                }
            ],
            "name" : "Circle"
        }
    ],
    "accessors" : [
        {
            "max" : [
                0.22865347564220428,
                0.6428776979446411,
                0.22865347564220428
            ],
            "type" : "VEC3",
            "min" : [
                -0.22865347564220428,
                0,
                -0.22865347564220428
            ],
            "bufferView" : 0,
            "componentType" : 5126,
            "count" : 136
        },
        {
            "type" : "VEC3",
            "componentType" : 5126,
            "bufferView" : 1,
            "count" : 136
        },
        {
            "type" : "VEC2",
            "componentType" : 5126,
            "bufferView" : 2,
            "count" : 136
        },
        {
            "type" : "SCALAR",
            "componentType" : 5123,
            "bufferView" : 3,
            "count" : 648
        }
    ],
    "bufferViews" : [
        {
            "buffer" : 0,
            "byteOffset" : 0,
            "byteLength" : 1632
        },
        {
            "buffer" : 0,
            "byteOffset" : 1632,
            "byteLength" : 1632
        },
        {
            "buffer" : 0,
            "byteOffset" : 3264,
            "byteLength" : 1088
        },
        {
            "buffer" : 0,
            "byteOffset" : 4352,
            "byteLength" : 1296
        }
    ],
    "buffers" : [
        {
            "uri" : "data:application/octet-stream;base64,",
            "byteLength" : 5648
        }
    ]
}
