{
    "asset" : {
        "generator" : "Khronos glTF Blender I/O v0.9.9",
        "version" : "2.0"
    },
    "scene" : 0,
    "scenes" : [
        {
            "name" : "Scene",
            "nodes" : [
                0
            ]
        }
    ],
    "nodes" : [
        {
            "name" : "Grass",
            "mesh" : 0
        }
    ],
    "meshes" : [
        {
            "primitives" : [
                {
                    "indices" : 3,
                    "attributes" : {
                        "NORMAL" : 0,
                        "POSITION" : 1,
                        "COLOR_0" : 2
                    }
                }
            ],
            "name" : "Plane.001"
        }
    ],
    "accessors" : [
        {
            "componentType" : 5126,
            "bufferView" : 0,
            "count" : 31,
            "type" : "VEC3"
        },
        {
            "componentType" : 5126,
            "bufferView" : 1,
            "min" : [
                -0.11065040528774261,
                -0.005632519721984863,
                -0.029546083882451057
            ],
            "max" : [
                0.007380673661828041,
                0.9943674802780151,
                0.02954608015716076
            ],
            "count" : 31,
            "type" : "VEC3"
        },
        {
            "componentType" : 5126,
            "bufferView" : 2,
            "count" : 31,
            "type" : "VEC4"
        },
        {
            "componentType" : 5123,
            "bufferView" : 3,
            "count" : 42,
            "type" : "SCALAR"
        }
    ],
    "bufferViews" : [
        {
            "buffer" : 0,
            "byteOffset" : 0,
            "byteLength" : 372
        },
        {
            "buffer" : 0,
            "byteOffset" : 372,
            "byteLength" : 372
        },
        {
            "buffer" : 0,
            "byteOffset" : 744,
            "byteLength" : 496
        },
        {
            "buffer" : 0,
            "byteOffset" : 1240,
            "byteLength" : 84
        }
    ],
    "buffers" : [
        {
            "uri" : "data:application/octet-stream;base64,",
            "byteLength" : 1324
        }
    ]
}
