{
    "asset" : {
        "generator" : "Khronos glTF Blender I/O v0.9.36",
        "version" : "2.0"
    },
    "scene" : 0,
    "scenes" : [
        {
            "name" : "Scene",
            "nodes" : [
                0,
                1,
                2,
                3,
                4,
                5,
                6,
                7,
                8
            ]
        }
    ],
    "nodes" : [
        {
            "mesh" : 0,
            "name" : "Cube.002"
        },
        {
            "mesh" : 1,
            "name" : "Cube.004"
        },
        {
            "mesh" : 2,
            "name" : "Cube.005"
        },
        {
            "mesh" : 3,
            "name" : "Cube.006"
        },
        {
            "mesh" : 4,
            "name" : "Cube.007"
        },
        {
            "mesh" : 5,
            "name" : "Cube.008"
        },
        {
            "mesh" : 6,
            "name" : "Cube.009"
        },
        {
            "mesh" : 7,
            "name" : "Cube.010"
        },
        {
            "mesh" : 8,
            "name" : "Cylinder"
        }
    ],
    "materials" : [
        {
            "doubleSided" : true,
            "name" : "Wood",
            "pbrMetallicRoughness" : {
                "baseColorTexture" : {
                    "index" : 0,
                    "texCoord" : 0
                },
                "metallicFactor" : 0,
                "roughnessFactor" : 1
            }
        },
        {
            "doubleSided" : true,
            "name" : "Base",
            "pbrMetallicRoughness" : {
                "baseColorTexture" : {
                    "index" : 1,
                    "texCoord" : 0
                },
                "metallicFactor" : 0.20000000298023224,
                "roughnessFactor" : 1
            }
        }
    ],
    "meshes" : [
        {
            "name" : "Cube.002",
            "primitives" : [
                {
                    "attributes" : {
                        "POSITION" : 0,
                        "NORMAL" : 1,
                        "TEXCOORD_0" : 2
                    },
                    "indices" : 3,
                    "material" : 0
                }
            ]
        },
        {
            "name" : "Cube.004",
            "primitives" : [
                {
                    "attributes" : {
                        "POSITION" : 4,
                        "NORMAL" : 5,
                        "TEXCOORD_0" : 6
                    },
                    "indices" : 7,
                    "material" : 0
                }
            ]
        },
        {
            "name" : "Cube.005",
            "primitives" : [
                {
                    "attributes" : {
                        "POSITION" : 8,
                        "NORMAL" : 9,
                        "TEXCOORD_0" : 10
                    },
                    "indices" : 11,
                    "material" : 0
                }
            ]
        },
        {
            "name" : "Cube.006",
            "primitives" : [
                {
                    "attributes" : {
                        "POSITION" : 12,
                        "NORMAL" : 13,
                        "TEXCOORD_0" : 14
                    },
                    "indices" : 15,
                    "material" : 0
                }
            ]
        },
        {
            "name" : "Cube.007",
            "primitives" : [
                {
                    "attributes" : {
                        "POSITION" : 16,
                        "NORMAL" : 17,
                        "TEXCOORD_0" : 18
                    },
                    "indices" : 19,
                    "material" : 0
                }
            ]
        },
        {
            "name" : "Cube.008",
            "primitives" : [
                {
                    "attributes" : {
                        "POSITION" : 20,
                        "NORMAL" : 21,
                        "TEXCOORD_0" : 22
                    },
                    "indices" : 23,
                    "material" : 0
                }
            ]
        },
        {
            "name" : "Cube.009",
            "primitives" : [
                {
                    "attributes" : {
                        "POSITION" : 24,
                        "NORMAL" : 25,
                        "TEXCOORD_0" : 26
                    },
                    "indices" : 27,
                    "material" : 0
                }
            ]
        },
        {
            "name" : "Cube.010",
            "primitives" : [
                {
                    "attributes" : {
                        "POSITION" : 28,
                        "NORMAL" : 29,
                        "TEXCOORD_0" : 30
                    },
                    "indices" : 31,
                    "material" : 0
                }
            ]
        },
        {
            "name" : "Cylinder",
            "primitives" : [
                {
                    "attributes" : {
                        "POSITION" : 32,
                        "NORMAL" : 33,
                        "TEXCOORD_0" : 34
                    },
                    "indices" : 35,
                    "material" : 1
                }
            ]
        }
    ],
    "textures" : [
        {
            "source" : 0
        },
        {
            "source" : 0
        }
    ],
    "images" : [
        {
            "bufferView" : 4,
            "mimeType" : "image/png",
            "name" : "Untitled"
        }
    ],
    "accessors" : [
        {
            "bufferView" : 0,
            "componentType" : 5126,
            "count" : 30,
            "max" : [
                0.22491168975830078,
                0.4270671308040619,
                0.4753733277320862
            ],
            "min" : [
                -0.8168033361434937,
                0.0023903250694274902,
                -0.7387275695800781
            ],
            "type" : "VEC3"
        },
        {
            "bufferView" : 1,
            "componentType" : 5126,
            "count" : 30,
            "type" : "VEC3"
        },
        {
            "bufferView" : 2,
            "componentType" : 5126,
            "count" : 30,
            "type" : "VEC2"
        },
        {
            "bufferView" : 3,
            "componentType" : 5123,
            "count" : 84,
            "type" : "SCALAR"
        },
        {
            "bufferView" : 5,
            "componentType" : 5126,
            "count" : 30,
            "max" : [
                0.634873628616333,
                0.20726346969604492,
                0.43624991178512573
            ],
            "min" : [
                -0.36299365758895874,
                0.09771519899368286,
                -0.03974302113056183
            ],
            "type" : "VEC3"
        },
        {
            "bufferView" : 6,
            "componentType" : 5126,
            "count" : 30,
            "type" : "VEC3"
        },
        {
            "bufferView" : 7,
            "componentType" : 5126,
            "count" : 30,
            "type" : "VEC2"
        },
        {
            "bufferView" : 8,
            "componentType" : 5123,
            "count" : 84,
            "type" : "SCALAR"
        },
        {
            "bufferView" : 9,
            "componentType" : 5126,
            "count" : 30,
            "max" : [
                0.5880515575408936,
                0.25071287155151367,
                0.7199857234954834
            ],
            "min" : [
                -0.3669944703578949,
                0.07004142552614212,
                -0.5560248494148254
            ],
            "type" : "VEC3"
        },
        {
            "bufferView" : 10,
            "componentType" : 5126,
            "count" : 30,
            "type" : "VEC3"
        },
        {
            "bufferView" : 11,
            "componentType" : 5126,
            "count" : 30,
            "type" : "VEC2"
        },
        {
            "bufferView" : 12,
            "componentType" : 5123,
            "count" : 84,
            "type" : "SCALAR"
        },
        {
            "bufferView" : 13,
            "componentType" : 5126,
            "count" : 14,
            "max" : [
                0.07796225696802139,
                0.19743607938289642,
                0.14902186393737793
            ],
            "min" : [
                -0.3547152280807495,
                0.1349448263645172,
                -0.7609353065490723
            ],
            "type" : "VEC3"
        },
        {
            "bufferView" : 14,
            "componentType" : 5126,
            "count" : 14,
            "type" : "VEC3"
        },
        {
            "bufferView" : 15,
            "componentType" : 5126,
            "count" : 14,
            "type" : "VEC2"
        },
        {
            "bufferView" : 16,
            "componentType" : 5123,
            "count" : 36,
            "type" : "SCALAR"
        },
        {
            "bufferView" : 17,
            "componentType" : 5126,
            "count" : 14,
            "max" : [
                0.24607700109481812,
                0.41720861196517944,
                0.18026497960090637
            ],
            "min" : [
                0.044003233313560486,
                0.005819454789161682,
                -0.8758794069290161
            ],
            "type" : "VEC3"
        },
        {
            "bufferView" : 18,
            "componentType" : 5126,
            "count" : 14,
            "type" : "VEC3"
        },
        {
            "bufferView" : 19,
            "componentType" : 5126,
            "count" : 14,
            "type" : "VEC2"
        },
        {
            "bufferView" : 20,
            "componentType" : 5123,
            "count" : 36,
            "type" : "SCALAR"
        },
        {
            "bufferView" : 21,
            "componentType" : 5126,
            "count" : 22,
            "max" : [
                -0.006411343812942505,
                0.5544441938400269,
                -0.05217762291431427
            ],
            "min" : [
                -0.6487045288085938,
                0.028567522764205933,
                -0.37835800647735596
            ],
            "type" : "VEC3"
        },
        {
            "bufferView" : 22,
            "componentType" : 5126,
            "count" : 22,
            "type" : "VEC3"
        },
        {
            "bufferView" : 23,
            "componentType" : 5126,
            "count" : 22,
            "type" : "VEC2"
        },
        {
            "bufferView" : 24,
            "componentType" : 5123,
            "count" : 60,
            "type" : "SCALAR"
        },
        {
            "bufferView" : 25,
            "componentType" : 5126,
            "count" : 22,
            "max" : [
                0.12067563831806183,
                0.4509640336036682,
                0.833368182182312
            ],
            "min" : [
                -0.1325540840625763,
                0.013634517788887024,
                -0.1095430850982666
            ],
            "type" : "VEC3"
        },
        {
            "bufferView" : 26,
            "componentType" : 5126,
            "count" : 22,
            "type" : "VEC3"
        },
        {
            "bufferView" : 27,
            "componentType" : 5126,
            "count" : 22,
            "type" : "VEC2"
        },
        {
            "bufferView" : 28,
            "componentType" : 5123,
            "count" : 60,
            "type" : "SCALAR"
        },
        {
            "bufferView" : 29,
            "componentType" : 5126,
            "count" : 30,
            "max" : [
                0.8023543953895569,
                0.48066967725753784,
                0.07376516610383987
            ],
            "min" : [
                -0.03333553671836853,
                -0.010887086391448975,
                -0.2506873309612274
            ],
            "type" : "VEC3"
        },
        {
            "bufferView" : 30,
            "componentType" : 5126,
            "count" : 30,
            "type" : "VEC3"
        },
        {
            "bufferView" : 31,
            "componentType" : 5126,
            "count" : 30,
            "type" : "VEC2"
        },
        {
            "bufferView" : 32,
            "componentType" : 5123,
            "count" : 84,
            "type" : "SCALAR"
        },
        {
            "bufferView" : 33,
            "componentType" : 5126,
            "count" : 72,
            "max" : [
                1,
                0.05000000074505806,
                1
            ],
            "min" : [
                -1,
                -0.05000000074505806,
                -1
            ],
            "type" : "VEC3"
        },
        {
            "bufferView" : 34,
            "componentType" : 5126,
            "count" : 72,
            "type" : "VEC3"
        },
        {
            "bufferView" : 35,
            "componentType" : 5126,
            "count" : 72,
            "type" : "VEC2"
        },
        {
            "bufferView" : 36,
            "componentType" : 5123,
            "count" : 132,
            "type" : "SCALAR"
        }
    ],
    "bufferViews" : [
        {
            "buffer" : 0,
            "byteLength" : 360,
            "byteOffset" : 0
        },
        {
            "buffer" : 0,
            "byteLength" : 360,
            "byteOffset" : 360
        },
        {
            "buffer" : 0,
            "byteLength" : 240,
            "byteOffset" : 720
        },
        {
            "buffer" : 0,
            "byteLength" : 168,
            "byteOffset" : 960
        },
        {
            "buffer" : 0,
            "byteLength" : 60696,
            "byteOffset" : 1128
        },
        {
            "buffer" : 0,
            "byteLength" : 360,
            "byteOffset" : 61824
        },
        {
            "buffer" : 0,
            "byteLength" : 360,
            "byteOffset" : 62184
        },
        {
            "buffer" : 0,
            "byteLength" : 240,
            "byteOffset" : 62544
        },
        {
            "buffer" : 0,
            "byteLength" : 168,
            "byteOffset" : 62784
        },
        {
            "buffer" : 0,
            "byteLength" : 360,
            "byteOffset" : 62952
        },
        {
            "buffer" : 0,
            "byteLength" : 360,
            "byteOffset" : 63312
        },
        {
            "buffer" : 0,
            "byteLength" : 240,
            "byteOffset" : 63672
        },
        {
            "buffer" : 0,
            "byteLength" : 168,
            "byteOffset" : 63912
        },
        {
            "buffer" : 0,
            "byteLength" : 168,
            "byteOffset" : 64080
        },
        {
            "buffer" : 0,
            "byteLength" : 168,
            "byteOffset" : 64248
        },
        {
            "buffer" : 0,
            "byteLength" : 112,
            "byteOffset" : 64416
        },
        {
            "buffer" : 0,
            "byteLength" : 72,
            "byteOffset" : 64528
        },
        {
            "buffer" : 0,
            "byteLength" : 168,
            "byteOffset" : 64600
        },
        {
            "buffer" : 0,
            "byteLength" : 168,
            "byteOffset" : 64768
        },
        {
            "buffer" : 0,
            "byteLength" : 112,
            "byteOffset" : 64936
        },
        {
            "buffer" : 0,
            "byteLength" : 72,
            "byteOffset" : 65048
        },
        {
            "buffer" : 0,
            "byteLength" : 264,
            "byteOffset" : 65120
        },
        {
            "buffer" : 0,
            "byteLength" : 264,
            "byteOffset" : 65384
        },
        {
            "buffer" : 0,
            "byteLength" : 176,
            "byteOffset" : 65648
        },
        {
            "buffer" : 0,
            "byteLength" : 120,
            "byteOffset" : 65824
        },
        {
            "buffer" : 0,
            "byteLength" : 264,
            "byteOffset" : 65944
        },
        {
            "buffer" : 0,
            "byteLength" : 264,
            "byteOffset" : 66208
        },
        {
            "buffer" : 0,
            "byteLength" : 176,
            "byteOffset" : 66472
        },
        {
            "buffer" : 0,
            "byteLength" : 120,
            "byteOffset" : 66648
        },
        {
            "buffer" : 0,
            "byteLength" : 360,
            "byteOffset" : 66768
        },
        {
            "buffer" : 0,
            "byteLength" : 360,
            "byteOffset" : 67128
        },
        {
            "buffer" : 0,
            "byteLength" : 240,
            "byteOffset" : 67488
        },
        {
            "buffer" : 0,
            "byteLength" : 168,
            "byteOffset" : 67728
        },
        {
            "buffer" : 0,
            "byteLength" : 864,
            "byteOffset" : 67896
        },
        {
            "buffer" : 0,
            "byteLength" : 864,
            "byteOffset" : 68760
        },
        {
            "buffer" : 0,
            "byteLength" : 576,
            "byteOffset" : 69624
        },
        {
            "buffer" : 0,
            "byteLength" : 264,
            "byteOffset" : 70200
        }
    ],
    "buffers" : [
        {
            "byteLength" : 70464,
            "uri" : "data:application/octet-stream;base64,"
        }
    ]
}
