{
    "asset" : {
        "generator" : "Khronos glTF Blender I/O v0.9.36",
        "version" : "2.0"
    },
    "scene" : 0,
    "scenes" : [
        {
            "name" : "Scene",
            "nodes" : [
                0,
                1,
                2,
                3,
                4,
                5
            ]
        }
    ],
    "nodes" : [
        {
            "mesh" : 0,
            "name" : "Trunk"
        },
        {
            "mesh" : 1,
            "name" : "Leaf.002"
        },
        {
            "mesh" : 2,
            "name" : "Leaf.000"
        },
        {
            "mesh" : 3,
            "name" : "Leaf.001"
        },
        {
            "mesh" : 4,
            "name" : "Leaf.003"
        },
        {
            "mesh" : 5,
            "name" : "Leaf.004"
        }
    ],
    "materials" : [
        {
            "alphaCutoff" : 0.5,
            "alphaMode" : "MASK",
            "doubleSided" : true,
            "name" : "Leafes",
            "pbrMetallicRoughness" : {
                "baseColorTexture" : {
                    "index" : 0,
                    "texCoord" : 0
                },
                "metallicFactor" : 0,
                "roughnessFactor" : 0.5
            }
        }
    ],
    "meshes" : [
        {
            "name" : "Cylinder",
            "primitives" : [
                {
                    "attributes" : {
                        "POSITION" : 0,
                        "NORMAL" : 1,
                        "TEXCOORD_0" : 2
                    },
                    "indices" : 3
                }
            ]
        },
        {
            "name" : "Circle.005",
            "primitives" : [
                {
                    "attributes" : {
                        "POSITION" : 4,
                        "NORMAL" : 5,
                        "TEXCOORD_0" : 6
                    },
                    "indices" : 7,
                    "material" : 0
                }
            ]
        },
        {
            "name" : "Circle.006",
            "primitives" : [
                {
                    "attributes" : {
                        "POSITION" : 8,
                        "NORMAL" : 9,
                        "TEXCOORD_0" : 10
                    },
                    "indices" : 11,
                    "material" : 0
                }
            ]
        },
        {
            "name" : "Circle.007",
            "primitives" : [
                {
                    "attributes" : {
                        "POSITION" : 12,
                        "NORMAL" : 13,
                        "TEXCOORD_0" : 14
                    },
                    "indices" : 15,
                    "material" : 0
                }
            ]
        },
        {
            "name" : "Circle.008",
            "primitives" : [
                {
                    "attributes" : {
                        "POSITION" : 16,
                        "NORMAL" : 17,
                        "TEXCOORD_0" : 18
                    },
                    "indices" : 19,
                    "material" : 0
                }
            ]
        },
        {
            "name" : "Circle.009",
            "primitives" : [
                {
                    "attributes" : {
                        "POSITION" : 20,
                        "NORMAL" : 21,
                        "TEXCOORD_0" : 22
                    },
                    "indices" : 23,
                    "material" : 0
                }
            ]
        }
    ],
    "textures" : [
        {
            "source" : 0
        }
    ],
    "images" : [
        {
            "bufferView" : 8,
            "mimeType" : "image/png",
            "name" : "foliage"
        }
    ],
    "accessors" : [
        {
            "bufferView" : 0,
            "componentType" : 5126,
            "count" : 382,
            "max" : [
                1.2546635866165161,
                4.435441970825195,
                0.9914100170135498
            ],
            "min" : [
                -1.1804624795913696,
                -0.03107283264398575,
                -1.2525554895401
            ],
            "type" : "VEC3"
        },
        {
            "bufferView" : 1,
            "componentType" : 5126,
            "count" : 382,
            "type" : "VEC3"
        },
        {
            "bufferView" : 2,
            "componentType" : 5126,
            "count" : 382,
            "type" : "VEC2"
        },
        {
            "bufferView" : 3,
            "componentType" : 5123,
            "count" : 1680,
            "type" : "SCALAR"
        },
        {
            "bufferView" : 4,
            "componentType" : 5126,
            "count" : 49,
            "max" : [
                1.969096302986145,
                3.6723291873931885,
                0.43730199337005615
            ],
            "min" : [
                0.23228561878204346,
                2.343484878540039,
                -1.3884432315826416
            ],
            "type" : "VEC3"
        },
        {
            "bufferView" : 5,
            "componentType" : 5126,
            "count" : 49,
            "type" : "VEC3"
        },
        {
            "bufferView" : 6,
            "componentType" : 5126,
            "count" : 49,
            "type" : "VEC2"
        },
        {
            "bufferView" : 7,
            "componentType" : 5123,
            "count" : 240,
            "type" : "SCALAR"
        },
        {
            "bufferView" : 9,
            "componentType" : 5126,
            "count" : 49,
            "max" : [
                1.694669485092163,
                4.942662715911865,
                0.6534719467163086
            ],
            "min" : [
                -0.8581434488296509,
                3.0488533973693848,
                -2.06904935836792
            ],
            "type" : "VEC3"
        },
        {
            "bufferView" : 10,
            "componentType" : 5126,
            "count" : 49,
            "type" : "VEC3"
        },
        {
            "bufferView" : 11,
            "componentType" : 5126,
            "count" : 49,
            "type" : "VEC2"
        },
        {
            "bufferView" : 12,
            "componentType" : 5123,
            "count" : 240,
            "type" : "SCALAR"
        },
        {
            "bufferView" : 13,
            "componentType" : 5126,
            "count" : 49,
            "max" : [
                0.5792566537857056,
                4.527459144592285,
                1.263198971748352
            ],
            "min" : [
                -1.9898134469985962,
                2.757842540740967,
                -1.5076292753219604
            ],
            "type" : "VEC3"
        },
        {
            "bufferView" : 14,
            "componentType" : 5126,
            "count" : 49,
            "type" : "VEC3"
        },
        {
            "bufferView" : 15,
            "componentType" : 5126,
            "count" : 49,
            "type" : "VEC2"
        },
        {
            "bufferView" : 16,
            "componentType" : 5123,
            "count" : 240,
            "type" : "SCALAR"
        },
        {
            "bufferView" : 17,
            "componentType" : 5126,
            "count" : 49,
            "max" : [
                1.1912636756896973,
                4.054112434387207,
                1.5971016883850098
            ],
            "min" : [
                -0.40231865644454956,
                3.304192543029785,
                0.019416749477386475
            ],
            "type" : "VEC3"
        },
        {
            "bufferView" : 18,
            "componentType" : 5126,
            "count" : 49,
            "type" : "VEC3"
        },
        {
            "bufferView" : 19,
            "componentType" : 5126,
            "count" : 49,
            "type" : "VEC2"
        },
        {
            "bufferView" : 20,
            "componentType" : 5123,
            "count" : 240,
            "type" : "SCALAR"
        },
        {
            "bufferView" : 21,
            "componentType" : 5126,
            "count" : 49,
            "max" : [
                0.37403419613838196,
                3.6478476524353027,
                1.4426488876342773
            ],
            "min" : [
                -1.3479853868484497,
                2.43544602394104,
                -0.5311185121536255
            ],
            "type" : "VEC3"
        },
        {
            "bufferView" : 22,
            "componentType" : 5126,
            "count" : 49,
            "type" : "VEC3"
        },
        {
            "bufferView" : 23,
            "componentType" : 5126,
            "count" : 49,
            "type" : "VEC2"
        },
        {
            "bufferView" : 24,
            "componentType" : 5123,
            "count" : 240,
            "type" : "SCALAR"
        }
    ],
    "bufferViews" : [
        {
            "buffer" : 0,
            "byteLength" : 4584,
            "byteOffset" : 0
        },
        {
            "buffer" : 0,
            "byteLength" : 4584,
            "byteOffset" : 4584
        },
        {
            "buffer" : 0,
            "byteLength" : 3056,
            "byteOffset" : 9168
        },
        {
            "buffer" : 0,
            "byteLength" : 3360,
            "byteOffset" : 12224
        },
        {
            "buffer" : 0,
            "byteLength" : 588,
            "byteOffset" : 15584
        },
        {
            "buffer" : 0,
            "byteLength" : 588,
            "byteOffset" : 16172
        },
        {
            "buffer" : 0,
            "byteLength" : 392,
            "byteOffset" : 16760
        },
        {
            "buffer" : 0,
            "byteLength" : 480,
            "byteOffset" : 17152
        },
        {
            "buffer" : 0,
            "byteLength" : 85023,
            "byteOffset" : 17632
        },
        {
            "buffer" : 0,
            "byteLength" : 588,
            "byteOffset" : 102656
        },
        {
            "buffer" : 0,
            "byteLength" : 588,
            "byteOffset" : 103244
        },
        {
            "buffer" : 0,
            "byteLength" : 392,
            "byteOffset" : 103832
        },
        {
            "buffer" : 0,
            "byteLength" : 480,
            "byteOffset" : 104224
        },
        {
            "buffer" : 0,
            "byteLength" : 588,
            "byteOffset" : 104704
        },
        {
            "buffer" : 0,
            "byteLength" : 588,
            "byteOffset" : 105292
        },
        {
            "buffer" : 0,
            "byteLength" : 392,
            "byteOffset" : 105880
        },
        {
            "buffer" : 0,
            "byteLength" : 480,
            "byteOffset" : 106272
        },
        {
            "buffer" : 0,
            "byteLength" : 588,
            "byteOffset" : 106752
        },
        {
            "buffer" : 0,
            "byteLength" : 588,
            "byteOffset" : 107340
        },
        {
            "buffer" : 0,
            "byteLength" : 392,
            "byteOffset" : 107928
        },
        {
            "buffer" : 0,
            "byteLength" : 480,
            "byteOffset" : 108320
        },
        {
            "buffer" : 0,
            "byteLength" : 588,
            "byteOffset" : 108800
        },
        {
            "buffer" : 0,
            "byteLength" : 588,
            "byteOffset" : 109388
        },
        {
            "buffer" : 0,
            "byteLength" : 392,
            "byteOffset" : 109976
        },
        {
            "buffer" : 0,
            "byteLength" : 480,
            "byteOffset" : 110368
        }
    ],
    "buffers" : [
        {
            "byteLength" : 110848,
            "uri" : "data:application/octet-stream;base64,"
        }
    ]
}
