{
    "asset" : {
        "generator" : "Khronos glTF Blender I/O v0.9.36",
        "version" : "2.0"
    },
    "scene" : 0,
    "scenes" : [
        {
            "name" : "Scene",
            "nodes" : [
                0,
                1
            ]
        }
    ],
    "nodes" : [
        {
            "mesh" : 0,
            "name" : "Fireball"
        },
        {
            "mesh" : 1,
            "name" : "Firesheet",
            "scale" : [
                0.6929699182510376,
                0.6929699182510376,
                0.6929699182510376
            ]
        }
    ],
    "meshes" : [
        {
            "name" : "Icosphere",
            "primitives" : [
                {
                    "attributes" : {
                        "POSITION" : 0,
                        "NORMAL" : 1,
                        "TEXCOORD_0" : 2
                    },
                    "indices" : 3
                }
            ]
        },
        {
            "name" : "Circle",
            "primitives" : [
                {
                    "attributes" : {
                        "POSITION" : 4,
                        "NORMAL" : 5,
                        "TEXCOORD_0" : 6
                    },
                    "indices" : 7
                }
            ]
        }
    ],
    "accessors" : [
        {
            "bufferView" : 0,
            "componentType" : 5126,
            "count" : 22,
            "max" : [
                0.17888499796390533,
                0.20000000298023224,
                0.1701280176639557
            ],
            "min" : [
                -0.17888499796390533,
                -0.20000000298023224,
                -0.1701280176639557
            ],
            "type" : "VEC3"
        },
        {
            "bufferView" : 1,
            "componentType" : 5126,
            "count" : 22,
            "type" : "VEC3"
        },
        {
            "bufferView" : 2,
            "componentType" : 5126,
            "count" : 22,
            "type" : "VEC2"
        },
        {
            "bufferView" : 3,
            "componentType" : 5123,
            "count" : 60,
            "type" : "SCALAR"
        },
        {
            "bufferView" : 4,
            "componentType" : 5126,
            "count" : 34,
            "max" : [
                0.4040999412536621,
                1.6435683965682983,
                0.4040999412536621
            ],
            "min" : [
                -0.4040999412536621,
                0,
                -0.4040999412536621
            ],
            "type" : "VEC3"
        },
        {
            "bufferView" : 5,
            "componentType" : 5126,
            "count" : 34,
            "type" : "VEC3"
        },
        {
            "bufferView" : 6,
            "componentType" : 5126,
            "count" : 34,
            "type" : "VEC2"
        },
        {
            "bufferView" : 7,
            "componentType" : 5123,
            "count" : 96,
            "type" : "SCALAR"
        }
    ],
    "bufferViews" : [
        {
            "buffer" : 0,
            "byteLength" : 264,
            "byteOffset" : 0
        },
        {
            "buffer" : 0,
            "byteLength" : 264,
            "byteOffset" : 264
        },
        {
            "buffer" : 0,
            "byteLength" : 176,
            "byteOffset" : 528
        },
        {
            "buffer" : 0,
            "byteLength" : 120,
            "byteOffset" : 704
        },
        {
            "buffer" : 0,
            "byteLength" : 408,
            "byteOffset" : 824
        },
        {
            "buffer" : 0,
            "byteLength" : 408,
            "byteOffset" : 1232
        },
        {
            "buffer" : 0,
            "byteLength" : 272,
            "byteOffset" : 1640
        },
        {
            "buffer" : 0,
            "byteLength" : 192,
            "byteOffset" : 1912
        }
    ],
    "buffers" : [
        {
            "byteLength" : 2104,
            "uri" : "data:application/octet-stream;base64,"
        }
    ]
}
