<?xml version="1.0" encoding="UTF-8" standalone="no"?>
<svg
   xmlns:dc="http://purl.org/dc/elements/1.1/"
   xmlns:cc="http://creativecommons.org/ns#"
   xmlns:rdf="http://www.w3.org/1999/02/22-rdf-syntax-ns#"
   xmlns:svg="http://www.w3.org/2000/svg"
   xmlns="http://www.w3.org/2000/svg"
   xmlns:sodipodi="http://sodipodi.sourceforge.net/DTD/sodipodi-0.dtd"
   xmlns:inkscape="http://www.inkscape.org/namespaces/inkscape"
   viewBox="0 0 54 54"
   id="svg2999"
   version="1.1"
   inkscape:version="0.48.4 r9939"
   width="100%"
   height="100%"
   sodipodi:docname="knapsack.svg">
  <metadata
     id="metadata3011">
    <rdf:RDF>
      <cc:Work
         rdf:about="">
        <dc:format>image/svg+xml</dc:format>
        <dc:type
           rdf:resource="http://purl.org/dc/dcmitype/StillImage" />
      </cc:Work>
    </rdf:RDF>
  </metadata>
  <defs
     id="defs3009" />
  <sodipodi:namedview
     pagecolor="#ffffff"
     bordercolor="#666666"
     borderopacity="1"
     objecttolerance="10"
     gridtolerance="10"
     guidetolerance="10"
     inkscape:pageopacity="0"
     inkscape:pageshadow="2"
     inkscape:window-width="1920"
     inkscape:window-height="1027"
     id="namedview3007"
     showgrid="false"
     fit-margin-top="0"
     fit-margin-left="0"
     fit-margin-right="0"
     fit-margin-bottom="0"
     inkscape:zoom="2.6074563"
     inkscape:cx="1.1667074"
     inkscape:cy="-7.0003478"
     inkscape:window-x="-8"
     inkscape:window-y="-8"
     inkscape:window-maximized="1"
     inkscape:current-layer="svg2999" />
  <path
     d="M 0,0 H 54 V 54 H 0 z"
     fill="transparent"
     id="path3001"
     inkscape:connector-curvature="0"
     style="fill-opacity:0" />
  <g
     class=""
     id="g3003"
     transform="scale(0.10546875,0.10546875)">
    <path
       d="M 230.125,18.156 V 247 h 49.313 V 18.156 h -49.313 z m -151.313,3.282 -16,136.906 c 48.707,30.112 97.637,47.843 148.625,53.094 V 33.125 C 167.193,31.303 122.977,27.235 78.812,21.437 z m 349.438,0.28 c -43.398,6.814 -86.784,10.647 -130.125,11.97 v 175 c 46.732,-7.458 95.816,-24.375 148.438,-50.844 L 428.25,21.72 z m -1.938,166.532 c -44.474,19.847 -87.06,32.836 -128.187,38.97 V 247 h 37.031 v 143.188 h -37.031 v 8.718 c 0,34.41 -20.516,56.084 -43.25,56.28 -22.734,0.2 -43.438,-21.34 -43.438,-56.28 v -8.72 l -27.656,0.002 h -9.343 V 247 h 37.001 v -17.188 c -43.774,-4.164 -86.14,-16.857 -127.687,-38.062 5.04,92.69 3.66,185.37 -5.063,278.063 117.402,32.047 234.788,31.002 352.188,0 -6.853,-93.858 -9.223,-187.706 -4.563,-281.563 z M 193.125,265.688 V 371.5 H 316.47 V 265.687 H 193.124 z m 20.47,18.156 H 296 v 67.5 h -82.406 v -67.5 z m 18.686,18.687 v 30.126 h 45.032 V 302.53 h -45.03 z m -2.155,87.658 v 8.718 c 0,28.23 13.32,37.692 24.594,37.594 11.27,-0.098 24.718,-10.018 24.718,-37.594 v -8.72 l -49.313,0.002 z"
       id="path3005"
       inkscape:connector-curvature="0"
       style="fill:#eeeeee;fill-opacity:1" />
  </g>
</svg>
