{
    "asset" : {
        "generator" : "Khronos glTF Blender I/O v0.9.36",
        "version" : "2.0"
    },
    "scene" : 0,
    "scenes" : [
        {
            "name" : "Scene",
            "nodes" : [
                0
            ]
        }
    ],
    "nodes" : [
        {
            "mesh" : 0,
            "name" : "Axe",
            "scale" : [
                0.5936986207962036,
                0.394467294216156,
                0.12396605312824249
            ],
            "translation" : [
                0.02797112800180912,
                0.19879966974258423,
                0
            ]
        }
    ],
    "materials" : [
        {
            "doubleSided" : true,
            "name" : "Head",
            "pbrMetallicRoughness" : {
                "baseColorFactor" : [
                    0.01702387072145939,
                    0.03144814819097519,
                    0.057802680879831314,
                    1
                ],
                "metallicFactor" : 0.824999988079071,
                "roughnessFactor" : 0.30000001192092896
            }
        },
        {
            "doubleSided" : true,
            "name" : "Handle",
            "pbrMetallicRoughness" : {
                "baseColorFactor" : [
                    1,
                    0.5747947096824646,
                    0.17550286650657654,
                    1
                ],
                "metallicFactor" : 0,
                "roughnessFactor" : 0.800000011920929
            }
        }
    ],
    "meshes" : [
        {
            "name" : "Cube.001",
            "primitives" : [
                {
                    "attributes" : {
                        "POSITION" : 0,
                        "NORMAL" : 1,
                        "TEXCOORD_0" : 2
                    },
                    "indices" : 3,
                    "material" : 0
                },
                {
                    "attributes" : {
                        "POSITION" : 4,
                        "NORMAL" : 5,
                        "TEXCOORD_0" : 6
                    },
                    "indices" : 7,
                    "material" : 1
                }
            ]
        }
    ],
    "accessors" : [
        {
            "bufferView" : 0,
            "componentType" : 5126,
            "count" : 50,
            "max" : [
                0.14097121357917786,
                0.12090728431940079,
                0.18316026031970978
            ],
            "min" : [
                -0.10000000149011612,
                -0.1451195627450943,
                -0.18316026031970978
            ],
            "type" : "VEC3"
        },
        {
            "bufferView" : 1,
            "componentType" : 5126,
            "count" : 50,
            "type" : "VEC3"
        },
        {
            "bufferView" : 2,
            "componentType" : 5126,
            "count" : 50,
            "type" : "VEC2"
        },
        {
            "bufferView" : 3,
            "componentType" : 5123,
            "count" : 72,
            "type" : "SCALAR"
        },
        {
            "bufferView" : 4,
            "componentType" : 5126,
            "count" : 81,
            "max" : [
                -0.0111931711435318,
                0.13872039318084717,
                0.11896920949220657
            ],
            "min" : [
                -0.08303351700305939,
                -1.1377360820770264,
                -0.11896910518407822
            ],
            "type" : "VEC3"
        },
        {
            "bufferView" : 5,
            "componentType" : 5126,
            "count" : 81,
            "type" : "VEC3"
        },
        {
            "bufferView" : 6,
            "componentType" : 5126,
            "count" : 81,
            "type" : "VEC2"
        },
        {
            "bufferView" : 7,
            "componentType" : 5123,
            "count" : 336,
            "type" : "SCALAR"
        }
    ],
    "bufferViews" : [
        {
            "buffer" : 0,
            "byteLength" : 600,
            "byteOffset" : 0
        },
        {
            "buffer" : 0,
            "byteLength" : 600,
            "byteOffset" : 600
        },
        {
            "buffer" : 0,
            "byteLength" : 400,
            "byteOffset" : 1200
        },
        {
            "buffer" : 0,
            "byteLength" : 144,
            "byteOffset" : 1600
        },
        {
            "buffer" : 0,
            "byteLength" : 972,
            "byteOffset" : 1744
        },
        {
            "buffer" : 0,
            "byteLength" : 972,
            "byteOffset" : 2716
        },
        {
            "buffer" : 0,
            "byteLength" : 648,
            "byteOffset" : 3688
        },
        {
            "buffer" : 0,
            "byteLength" : 672,
            "byteOffset" : 4336
        }
    ],
    "buffers" : [
        {
            "byteLength" : 5008,
            "uri" : "data:application/octet-stream;base64,"
        }
    ]
}
