{
    "asset" : {
        "version" : "2.0",
        "generator" : "Khronos glTF Blender I/O v0.9.9"
    },
    "scene" : 0,
    "scenes" : [
        {
            "nodes" : [
                0
            ],
            "name" : "Scene"
        }
    ],
    "nodes" : [
        {
            "rotation" : [
                0.9889187216758728,
                0.1484580785036087,
                0,
                -1.5805184716555232e-07
            ],
            "scale" : [
                0.08881833404302597,
                0.08881833404302597,
                0.08881833404302597
            ],
            "name" : "Cube",
            "mesh" : 0,
            "translation" : [
                -0.7076690793037415,
                0.3062398135662079,
                0
            ]
        }
    ],
    "animations" : [
        {
            "samplers" : [
                {
                    "output" : 4,
                    "input" : 3,
                    "interpolation" : "CUBICSPLINE"
                },
                {
                    "output" : 5,
                    "input" : 3,
                    "interpolation" : "CUBICSPLINE"
                }
            ],
            "name" : "ArrowMotion",
            "channels" : [
                {
                    "target" : {
                        "path" : "translation",
                        "node" : 0
                    },
                    "sampler" : 0
                },
                {
                    "target" : {
                        "path" : "rotation",
                        "node" : 0
                    },
                    "sampler" : 1
                }
            ]
        }
    ],
    "meshes" : [
        {
            "primitives" : [
                {
                    "indices" : 2,
                    "attributes" : {
                        "NORMAL" : 0,
                        "POSITION" : 1
                    }
                }
            ],
            "name" : "Cube.001"
        }
    ],
    "accessors" : [
        {
            "bufferView" : 0,
            "type" : "VEC3",
            "componentType" : 5126,
            "count" : 111
        },
        {
            "min" : [
                -4.069457530975342,
                -0.23392586410045624,
                -2.245629072189331
            ],
            "bufferView" : 1,
            "type" : "VEC3",
            "componentType" : 5126,
            "count" : 111,
            "max" : [
                4.1673784255981445,
                1.8535969257354736,
                2.2456297874450684
            ]
        },
        {
            "bufferView" : 2,
            "type" : "SCALAR",
            "componentType" : 5123,
            "count" : 165
        },
        {
            "min" : [
                0.041666666666666664
            ],
            "bufferView" : 3,
            "type" : "SCALAR",
            "componentType" : 5126,
            "count" : 3,
            "max" : [
                1.0416666666666667
            ]
        },
        {
            "bufferView" : 4,
            "type" : "VEC3",
            "componentType" : 5126,
            "count" : 9
        },
        {
            "bufferView" : 5,
            "type" : "VEC4",
            "componentType" : 5126,
            "count" : 9
        }
    ],
    "bufferViews" : [
        {
            "buffer" : 0,
            "byteLength" : 1332,
            "byteOffset" : 0
        },
        {
            "buffer" : 0,
            "byteLength" : 1332,
            "byteOffset" : 1332
        },
        {
            "buffer" : 0,
            "byteLength" : 330,
            "byteOffset" : 2664
        },
        {
            "buffer" : 0,
            "byteLength" : 12,
            "byteOffset" : 2996
        },
        {
            "buffer" : 0,
            "byteLength" : 108,
            "byteOffset" : 3008
        },
        {
            "buffer" : 0,
            "byteLength" : 144,
            "byteOffset" : 3116
        }
    ],
    "buffers" : [
        {
            "byteLength" : 3260,
            "uri" : "data:application/octet-stream;base64,"
        }
    ]
}
