# Blender v2.79 (sub 0) OBJ File: 'Crystal_005.blend'
# www.blender.org
o Crystal_005_Cube
v -0.585045 0.981669 -0.854919
v -0.906381 0.973642 -0.098104
v 0.399547 -0.216573 0.929011
v 0.555433 -0.991728 0.950675
v -0.044387 2.353904 -0.057152
v 0.453183 1.880883 0.185208
v -0.678680 1.527855 0.173756
v -0.464775 0.124882 1.003457
v -0.430512 -2.253640 -0.241315
v -0.512016 1.026125 0.578025
v 0.106527 -0.444045 -1.261268
v -1.044298 -0.485103 0.566186
v 0.368759 0.773974 0.544124
v 0.999934 0.408014 0.029254
v 1.141541 -0.093905 -0.460305
v 0.557377 -2.267332 0.062184
v -1.217570 -0.824771 -0.676054
v 1.225557 -1.078547 -0.263223
v -0.524714 -0.631926 1.126937
v -0.246700 2.146668 -0.159362
v -0.017151 -1.726741 -1.157697
v 1.015911 -1.084898 -1.019376
v 0.429496 1.685911 -0.461072
v -0.581038 -1.784328 0.561028
vn -0.0281 0.5184 -0.8547
vn 0.6988 0.2778 0.6592
vn 0.8165 -0.3291 0.4743
vn -0.9853 0.1385 0.0996
vn -0.7487 0.6314 0.2019
vn 0.7609 0.1705 0.6261
vn -0.8361 0.2909 0.4651
vn 0.8681 0.1676 0.4672
vn -0.8864 0.2734 -0.3735
vn -0.8621 0.1118 0.4942
vn 0.9230 0.3577 -0.1417
vn -0.4171 0.0562 -0.9071
vn -0.7391 0.2555 0.6232
vn 0.4803 0.3840 -0.7886
vn 0.9632 0.0287 -0.2673
vn -0.8519 0.4667 -0.2378
vn -0.8841 -0.4563 0.1010
vn 0.1217 0.2977 0.9469
vn 0.1330 0.3308 -0.9343
vn 0.9364 -0.0711 0.3437
vn 0.6819 0.1780 0.7094
vn -0.0218 0.4377 0.8989
vn 0.4090 0.1153 0.9052
vn 0.1569 0.4283 0.8899
vn 0.7265 0.6501 -0.2227
vn -0.7006 0.1686 0.6933
vn -0.3727 0.5040 0.7792
vn -0.8255 0.4462 -0.3458
vn 0.9227 0.3691 -0.1115
vn -0.1583 -0.8650 0.4762
vn -0.0577 0.4863 -0.8719
vn -0.9190 -0.3285 0.2180
vn 0.1912 -0.0973 -0.9767
vn -0.3953 -0.0360 -0.9178
vn 0.5496 0.2195 -0.8061
vn -0.7408 -0.2666 0.6166
vn -0.6248 -0.5211 -0.5814
vn 0.1263 -0.8835 -0.4510
vn 0.0363 0.3629 0.9311
vn 0.8223 -0.5234 -0.2236
vn -0.0003 -0.4408 0.8976
vn 0.1164 -0.5675 0.8151
vn 0.4961 -0.6829 -0.5363
vn 0.1814 0.0639 0.9813
s off
f 1//1 20//1 23//1
f 13//2 3//2 14//2
f 18//3 4//3 16//3
f 17//4 12//4 2//4
f 7//5 5//5 20//5
f 4//6 14//6 3//6
f 10//7 2//7 12//7
f 15//8 4//8 18//8
f 17//9 2//9 1//9
f 10//10 7//10 2//10
f 6//11 14//11 23//11
f 1//12 11//12 17//12
f 10//13 12//13 8//13
f 11//14 15//14 22//14
f 22//15 15//15 18//15
f 2//16 7//16 20//16
f 9//17 24//17 17//17
f 10//18 13//18 6//18
f 1//19 23//19 11//19
f 15//20 14//20 4//20
f 6//21 13//21 14//21
f 5//22 10//22 6//22
f 13//23 8//23 19//23
f 13//24 10//24 8//24
f 23//25 5//25 6//25
f 8//26 12//26 19//26
f 5//27 7//27 10//27
f 1//28 2//28 20//28
f 14//29 15//29 23//29
f 24//30 9//30 16//30
f 20//31 5//31 23//31
f 24//32 12//32 17//32
f 21//33 11//33 22//33
f 17//34 11//34 21//34
f 23//35 15//35 11//35
f 12//36 24//36 19//36
f 17//37 21//37 9//37
f 16//38 9//38 21//38
f 3//39 13//39 19//39
f 18//40 16//40 22//40
f 24//41 4//41 19//41
f 16//42 4//42 24//42
f 21//43 22//43 16//43
f 4//44 3//44 19//44
